<?xml version="1.0" standalone="no"?>
<!DOCTYPE svg PUBLIC "-//W3C//DTD SVG 20010904//EN"
 "http://www.w3.org/TR/2001/REC-SVG-20010904/DTD/svg10.dtd">
<svg version="1.0" xmlns="http://www.w3.org/2000/svg"
 width="300.000000pt" height="300.000000pt" viewBox="0 0 300.000000 300.000000"
 preserveAspectRatio="xMidYMid meet">
<metadata>
Created by potrace 1.10, written by Peter Selinger 2001-2011
</metadata>
<g transform="translate(0.000000,300.000000) scale(0.100000,-0.100000)"
fill="#000000" stroke="none">
<path d="M1135 2977 c-123 -48 -205 -166 -205 -296 0 -69 28 -157 55 -171 28
-15 61 -5 76 22 8 15 8 32 -2 66 -27 98 -11 168 52 230 42 41 87 55 159 50 50
-4 66 -10 116 -49 52 -40 62 -44 114 -44 52 0 62 4 114 44 50 39 66 45 116 49
72 5 117 -9 159 -50 47 -46 63 -83 63 -147 0 -109 -74 -240 -213 -379 -78 -78
-209 -172 -238 -172 -10 0 -49 20 -88 45 -61 39 -74 44 -97 36 -26 -11 -43
-49 -33 -76 8 -19 132 -100 180 -116 46 -16 84 -5 177 56 199 128 364 330 415
509 34 116 5 237 -77 318 -53 53 -107 80 -173 86 -46 4 -48 3 -30 -11 11 -8
37 -20 57 -28 58 -20 129 -79 163 -133 27 -45 30 -57 30 -135 -1 -77 -4 -94
-37 -163 -20 -42 -57 -106 -82 -142 -96 -133 -315 -311 -391 -318 -44 -3 -64
4 -123 42 -60 38 -80 70 -44 70 9 0 37 -14 61 -30 87 -59 128 -50 264 60 196
158 331 375 313 505 -19 144 -159 242 -293 206 -23 -6 -62 -26 -85 -45 -79
-60 -138 -64 -193 -16 -79 70 -191 86 -275 39 -53 -29 -105 -95 -121 -152 -10
-39 -9 -60 7 -149 5 -30 3 -38 -8 -38 -27 0 -43 50 -43 134 0 70 4 88 27 126
14 25 39 57 55 72 26 25 120 78 139 78 5 0 18 7 28 15 19 14 17 15 -20 14 -21
0 -53 -6 -69 -12z"/>
<path d="M1260 2985 c0 -2 33 -20 73 -39 39 -18 87 -45 106 -60 43 -32 79 -33
117 -3 15 12 66 41 114 64 l85 42 -45 0 c-53 1 -118 -27 -167 -69 -18 -17 -38
-30 -43 -30 -5 0 -25 13 -43 30 -46 40 -113 70 -159 70 -21 0 -38 -2 -38 -5z"/>
<path d="M1050 2492 c0 -18 26 -66 44 -81 14 -11 16 -11 16 6 0 21 -59 96 -60
75z"/>
<path d="M1130 2393 c-40 -14 -53 -69 -22 -96 34 -31 83 -16 97 30 4 17 -1 29
-19 48 -26 26 -30 27 -56 18z"/>
<path d="M1221 2263 c46 -52 74 -68 62 -36 -9 23 -54 62 -72 63 -10 0 -7 -9
10 -27z"/>
<path d="M715 1877 c-83 -32 -146 -96 -173 -176 -17 -49 -15 -254 2 -295 14
-33 14 -34 -30 -70 -58 -48 -102 -115 -130 -194 -19 -55 -29 -69 -57 -84 -52
-26 -115 -103 -132 -161 -20 -68 -20 -223 1 -283 15 -45 15 -48 -3 -57 -36
-20 -104 -101 -133 -161 -34 -70 -50 -157 -50 -272 0 -85 9 -107 48 -119 25
-7 28 2 7 29 -20 27 -20 183 0 259 22 84 47 128 116 202 l62 65 -9 48 c-5 26
-9 97 -9 157 0 99 3 116 26 160 17 34 42 62 80 88 59 42 69 56 99 138 14 40
41 79 91 134 61 67 70 81 64 104 -14 55 -17 252 -5 296 29 102 133 172 245
163 69 -6 106 -22 151 -67 57 -56 69 -93 69 -216 0 -60 -4 -132 -9 -158 -9
-48 -9 -49 35 -93 24 -25 52 -50 61 -55 24 -13 65 9 112 62 36 39 38 44 30 83
-5 22 -9 95 -9 162 0 117 1 122 30 170 19 30 49 60 79 79 44 27 58 30 126 30
68 0 82 -3 126 -30 30 -19 60 -49 79 -79 29 -48 30 -52 30 -175 -1 -69 -5
-143 -9 -164 -8 -36 -6 -41 30 -78 21 -23 52 -47 67 -55 25 -14 30 -13 56 5
16 12 43 37 61 57 27 32 31 42 26 73 -17 97 -18 229 -2 282 41 140 196 208
331 145 59 -27 96 -67 120 -130 14 -36 16 -66 12 -163 -3 -65 -8 -130 -12
-145 -6 -23 2 -36 62 -101 42 -45 75 -93 87 -123 37 -97 48 -113 96 -144 109
-70 142 -190 108 -389 l-12 -69 64 -68 c68 -73 104 -140 120 -224 15 -77 12
-200 -5 -230 -20 -35 -18 -42 8 -35 38 12 47 34 47 119 0 115 -16 202 -50 272
-29 60 -97 141 -133 161 -18 9 -18 12 -3 57 21 60 21 215 1 283 -17 58 -80
135 -132 161 -28 15 -38 29 -57 84 -28 79 -72 146 -130 194 l-44 37 15 35 c22
54 15 273 -12 327 -25 51 -80 105 -130 130 -63 30 -169 32 -234 5 -68 -30
-136 -105 -156 -173 -20 -68 -20 -222 1 -283 15 -45 15 -46 -8 -62 -13 -9 -34
-28 -47 -43 l-24 -27 -31 32 c-17 18 -39 37 -50 43 -18 10 -18 12 -1 56 14 37
16 68 13 164 -4 133 -19 174 -84 237 -52 50 -99 70 -181 74 -60 3 -80 0 -125
-20 -62 -29 -110 -74 -140 -132 -31 -58 -39 -255 -13 -323 17 -44 17 -46 -1
-56 -11 -6 -33 -25 -50 -43 l-32 -33 -25 28 c-13 16 -35 35 -47 44 -21 15 -21
16 -6 61 21 60 21 215 1 283 -19 65 -85 139 -150 169 -56 27 -156 32 -210 11z"/>
<path d="M725 1791 c-86 -40 -115 -99 -115 -236 0 -135 30 -193 121 -235 55
-24 102 -25 154 -1 92 42 130 123 123 260 -4 77 -8 96 -34 137 -53 86 -157
117 -249 75z m180 -45 c55 -42 65 -71 65 -186 0 -144 -27 -192 -122 -218 -75
-21 -147 14 -186 89 -20 39 -23 56 -20 140 3 83 6 101 28 132 54 79 161 99
235 43z"/>
<path d="M1430 1799 c-44 -18 -99 -80 -116 -132 -24 -72 -15 -211 16 -262 30
-48 91 -92 139 -100 78 -13 170 36 205 109 23 48 28 207 9 261 -17 48 -66 102
-110 121 -37 16 -106 17 -143 3z m133 -33 c43 -18 84 -67 98 -119 16 -60 7
-187 -17 -227 -65 -112 -223 -112 -288 0 -25 42 -34 180 -16 234 33 101 132
151 223 112z"/>
<path d="M2099 1787 c-29 -16 -54 -40 -74 -72 -29 -46 -30 -53 -30 -161 0
-109 1 -114 30 -155 53 -75 124 -109 198 -95 54 10 113 55 141 107 23 41 26
59 26 143 0 103 -13 152 -53 194 -59 64 -160 80 -238 39z m171 -30 c66 -35 90
-87 90 -196 0 -97 -23 -159 -71 -194 -79 -57 -202 -29 -243 57 -21 45 -23 224
-2 264 44 84 141 114 226 69z"/>
<path d="M579 1286 c-40 -27 -104 -116 -115 -160 -9 -36 14 -60 78 -83 61 -22
114 -71 141 -132 28 -63 34 -195 13 -276 -15 -58 -15 -61 5 -90 24 -35 86 -85
105 -85 20 0 97 63 114 92 12 23 12 34 2 73 -20 74 -15 215 8 279 24 63 78
118 136 136 86 27 99 51 68 125 -20 48 -116 145 -144 145 -11 0 -40 -10 -63
-22 -61 -32 -186 -33 -240 0 -48 28 -64 28 -108 -2z m102 -33 c44 -23 66 -28
129 -28 63 0 83 4 123 27 56 32 65 29 120 -31 31 -35 77 -109 77 -126 0 -3
-10 -5 -22 -5 -35 -1 -109 -38 -146 -73 -60 -57 -84 -120 -90 -227 -3 -68 0
-113 12 -159 9 -35 15 -64 14 -65 -2 -1 -22 -18 -45 -40 l-41 -38 -50 42 -50
43 14 33 c20 47 19 246 -2 306 -8 25 -31 64 -50 86 -36 43 -123 92 -161 92
-32 0 -29 19 12 80 28 41 90 109 102 110 0 0 25 -12 54 -27z"/>
<path d="M1285 1291 c-34 -21 -71 -62 -87 -96 -15 -34 15 -118 53 -147 135
-102 154 -142 146 -311 -3 -61 -9 -127 -13 -145 -6 -29 -2 -37 31 -68 21 -20
49 -42 62 -51 27 -18 39 -12 107 51 34 32 38 39 32 68 -4 18 -10 85 -13 149
-7 165 12 205 146 306 38 30 63 101 51 145 -11 37 -52 83 -94 105 -26 14 -32
13 -86 -11 -78 -35 -164 -36 -238 -1 -64 30 -60 30 -97 6z m65 -26 c7 -8 38
-22 68 -31 72 -21 149 -13 216 21 l50 26 49 -49 48 -49 -16 -51 c-14 -42 -25
-56 -60 -76 -52 -31 -91 -76 -118 -136 -27 -59 -30 -255 -6 -310 l16 -35 -49
-43 -48 -44 -48 44 -49 43 16 35 c24 56 21 251 -5 310 -28 60 -67 105 -119
136 -36 21 -47 34 -61 76 l-16 50 48 49 c52 52 64 58 84 34z"/>
<path d="M1964 1282 c-21 -16 -51 -46 -66 -68 -69 -100 -64 -130 25 -168 76
-32 109 -62 142 -126 22 -43 25 -62 25 -156 0 -59 -5 -124 -12 -145 -7 -25 -8
-46 -2 -58 11 -23 101 -101 117 -101 7 0 36 21 66 47 51 45 53 47 47 87 -18
118 -18 234 -1 292 21 74 79 134 154 159 30 10 58 27 67 40 14 22 14 28 -4 68
-23 53 -84 122 -125 143 -27 15 -33 14 -89 -11 -51 -23 -71 -26 -127 -23 -41
3 -83 13 -110 26 -57 28 -60 28 -107 -6z m102 -29 c41 -24 61 -28 124 -28 63
0 85 5 129 28 52 27 55 27 75 10 35 -30 58 -56 87 -102 35 -54 36 -71 6 -71
-38 0 -125 -49 -161 -92 -19 -22 -42 -61 -50 -86 -21 -59 -22 -259 -2 -305 13
-32 12 -33 -35 -77 l-48 -45 -48 45 c-48 45 -48 45 -33 75 11 22 15 62 15 150
0 135 -17 189 -78 254 -35 37 -119 81 -154 81 -29 0 -29 5 6 65 24 42 100 125
115 125 2 0 25 -12 52 -27z"/>
<path d="M1106 1010 c-126 -38 -182 -175 -145 -352 29 -136 190 -200 303 -121
66 46 86 97 86 221 0 113 -11 150 -58 198 -49 48 -127 71 -186 54z m124 -52
c71 -36 92 -87 88 -215 -2 -84 -7 -106 -24 -130 -76 -102 -210 -99 -282 7 -22
32 -23 43 -20 145 3 96 6 114 26 143 50 69 134 89 212 50z"/>
<path d="M2492 1010 c-44 -10 -101 -57 -129 -106 -20 -34 -23 -54 -23 -145 0
-92 3 -112 23 -150 63 -118 207 -143 308 -52 57 51 72 102 67 222 -3 92 -6
104 -34 143 -48 69 -135 105 -212 88z m136 -57 c15 -11 37 -35 50 -54 22 -32
23 -42 20 -149 -2 -95 -6 -119 -22 -141 -37 -47 -68 -63 -131 -67 -74 -5 -118
21 -153 88 -20 39 -23 57 -20 141 3 83 6 101 28 132 50 74 163 99 228 50z"/>
<path d="M385 995 c-90 -48 -117 -104 -118 -240 -1 -93 1 -104 26 -148 28 -47
85 -88 140 -101 51 -12 131 19 171 66 47 54 59 103 54 208 -5 101 -29 154 -91
197 -49 34 -136 42 -182 18z m149 -35 c23 -11 52 -36 66 -57 22 -31 25 -50 28
-132 3 -84 0 -102 -20 -141 -34 -67 -79 -93 -153 -88 -69 4 -115 32 -140 84
-20 43 -21 223 -1 262 44 84 135 114 220 72z"/>
<path d="M1764 996 c-41 -18 -102 -92 -110 -132 -3 -18 -4 -77 -2 -131 3 -89
6 -104 31 -142 39 -58 119 -96 186 -87 57 8 119 49 149 101 21 37 22 50 20
160 -3 111 -5 123 -30 159 -39 57 -92 85 -158 85 -30 0 -69 -6 -86 -13z m156
-36 c69 -35 85 -69 88 -195 3 -102 2 -113 -20 -145 -72 -106 -206 -109 -282
-7 -17 24 -22 46 -24 130 -3 90 0 107 20 147 41 80 138 111 218 70z"/>
<path d="M1644 505 c-45 -19 -120 -109 -145 -173 -15 -40 -22 -81 -23 -135 -1
-74 1 -80 27 -103 l28 -24 292 0 c302 0 359 6 377 40 5 10 10 57 10 103 0 73
-4 91 -30 143 -34 69 -89 130 -132 149 -28 11 -37 10 -87 -13 -40 -19 -73 -26
-116 -26 -43 0 -76 7 -116 26 -49 22 -60 24 -85 13z m77 -52 c44 -23 66 -28
129 -28 63 0 83 4 123 27 57 32 66 30 126 -38 50 -57 81 -149 81 -238 l0 -61
-336 0 -337 0 6 83 c6 100 45 190 107 246 22 20 42 36 44 36 2 0 28 -12 57
-27z"/>
<path d="M217 470 c-78 -69 -127 -179 -127 -287 0 -44 5 -58 25 -79 l25 -25
279 3 c334 4 316 -3 323 121 3 45 11 101 18 124 17 55 9 81 -42 132 -55 54
-77 59 -136 30 -27 -13 -73 -24 -109 -27 -51 -3 -71 0 -118 22 -32 14 -65 26
-75 26 -9 0 -38 -18 -63 -40z m119 -17 c41 -24 61 -28 124 -28 63 0 85 5 129
27 l52 28 29 -21 c15 -12 38 -34 50 -51 19 -26 20 -33 10 -61 -7 -18 -15 -76
-19 -130 l-6 -98 -288 -2 -287 -2 0 72 c0 97 27 167 92 238 27 30 53 55 58 55
4 0 29 -12 56 -27z"/>
<path d="M929 487 c-45 -30 -106 -119 -124 -181 -8 -27 -15 -80 -15 -118 0
-112 -13 -108 318 -108 266 0 279 1 300 20 18 17 22 32 22 81 0 33 7 89 16
124 20 80 15 99 -37 153 -53 54 -75 59 -130 31 -27 -13 -70 -24 -110 -27 -57
-4 -75 -1 -124 22 -70 32 -73 32 -116 3z m100 -34 c79 -39 175 -39 250 -1 60
32 70 29 120 -27 36 -41 36 -43 16 -109 -8 -27 -15 -83 -15 -125 l0 -76 -291
0 -291 0 4 85 c5 104 28 160 94 230 26 27 49 50 52 50 3 0 30 -12 61 -27z"/>
<path d="M2314 490 c-17 -11 -44 -38 -59 -60 -29 -42 -29 -40 -6 -150 6 -25
10 -70 11 -101 0 -45 4 -60 23 -77 23 -21 30 -22 298 -22 342 0 322 -8 317
129 -3 83 -7 104 -33 154 -32 64 -115 147 -146 147 -11 0 -39 -10 -62 -21 -23
-12 -69 -24 -103 -27 -52 -4 -71 0 -119 22 -69 31 -81 32 -121 6z m97 -37 c44
-23 66 -28 129 -28 65 0 82 4 129 30 l54 30 52 -57 c68 -72 95 -142 95 -241
l0 -72 -288 2 -287 1 -2 78 c-2 43 -10 102 -18 132 -18 60 -16 65 44 119 20
18 37 33 38 33 0 0 25 -12 54 -27z"/>
</g>
</svg>
